<svg width="22" height="15" viewBox="0 0 22 15" fill="none" xmlns="http://www.w3.org/2000/svg">
<path d="M19.5317 9.0394C18.9873 6.8747 17.6792 4.99218 15.859 3.75384H21.2668C21.4612 3.75384 21.6477 3.67487 21.7852 3.53429C21.9227 3.39371 22 3.20305 22 3.00425C22 2.80544 21.9227 2.61478 21.7852 2.47421C21.6477 2.33363 21.4612 2.25466 21.2668 2.25466H13.8426C13.6811 1.6097 13.3142 1.03804 12.7997 0.62981C12.2853 0.221581 11.6525 0 11.0013 0C10.35 0 9.7173 0.221581 9.20285 0.62981C8.68839 1.03804 8.32148 1.6097 8.15994 2.25466H0.735801C0.541331 2.25466 0.354827 2.33363 0.217316 2.47421C0.0798054 2.61478 0.00255276 2.80544 0.00255276 3.00425C0.00255276 3.20305 0.0798054 3.39371 0.217316 3.53429C0.354827 3.67487 0.541331 3.75384 0.735801 3.75384H6.14351C4.32336 4.99218 3.0153 6.8747 2.47085 9.0394C1.76681 9.15424 1.1278 9.5273 0.673293 10.0888C0.218786 10.6504 -0.0200927 11.3619 0.00132482 12.0904C0.0227423 12.8189 0.302989 13.5145 0.789663 14.0471C1.27634 14.5797 1.93611 14.9129 2.64562 14.9843C3.35513 15.0557 4.0658 14.8604 4.64473 14.4351C5.22366 14.0097 5.63122 13.3834 5.79119 12.6731C5.95117 11.9629 5.85261 11.2174 5.51395 10.576C5.17529 9.93467 4.61971 9.44138 3.95109 9.18839C4.26591 8.07873 4.82559 7.05771 5.58704 6.20391C6.34849 5.35011 7.29142 4.6863 8.34325 4.26356C8.57859 4.78231 8.95411 5.22145 9.42555 5.52919C9.89699 5.83693 10.4447 6.00044 11.004 6.00044C11.5634 6.00044 12.1111 5.83693 12.5825 5.52919C13.0539 5.22145 13.4295 4.78231 13.6648 4.26356C14.7156 4.68701 15.6574 5.35113 16.4179 6.20489C17.1784 7.05865 17.7372 8.0793 18.0515 9.18839C17.3825 9.44052 16.8263 9.93311 16.4869 10.574C16.1474 11.215 16.048 11.9603 16.2071 12.6708C16.3662 13.3813 16.773 14.0081 17.3514 14.4342C17.9298 14.8603 18.6403 15.0564 19.3499 14.9859C20.0595 14.9154 20.7197 14.5831 21.207 14.0511C21.6943 13.5191 21.9754 12.8238 21.9977 12.0953C22.0199 11.3668 21.7819 10.655 21.328 10.0929C20.8742 9.53083 20.2356 9.15698 19.5317 9.04128V9.0394ZM4.40204 11.9994C4.40204 12.2959 4.31603 12.5857 4.15489 12.8323C3.99375 13.0788 3.76472 13.271 3.49675 13.3844C3.22878 13.4979 2.93392 13.5276 2.64945 13.4697C2.36497 13.4119 2.10367 13.2691 1.89858 13.0594C1.69348 12.8498 1.55381 12.5826 1.49723 12.2918C1.44064 12.001 1.46968 11.6996 1.58068 11.4256C1.69168 11.1517 1.87964 10.9176 2.1208 10.7528C2.36197 10.5881 2.6455 10.5002 2.93555 10.5002C3.32448 10.5002 3.69749 10.6581 3.97252 10.9393C4.24754 11.2204 4.40204 11.6017 4.40204 11.9994ZM11.0013 4.50343C10.7112 4.50343 10.4277 4.41551 10.1865 4.25077C9.94537 4.08604 9.75741 3.8519 9.64641 3.57796C9.53541 3.30402 9.50637 3.00259 9.56296 2.71177C9.61954 2.42096 9.75921 2.15383 9.96431 1.94417C10.1694 1.7345 10.4307 1.59172 10.7152 1.53387C10.9997 1.47602 11.2945 1.50571 11.5625 1.61918C11.8304 1.73265 12.0595 1.92481 12.2206 2.17135C12.3818 2.41789 12.4678 2.70774 12.4678 3.00425C12.4678 3.40186 12.3133 3.78318 12.0382 4.06433C11.7632 4.34548 11.3902 4.50343 11.0013 4.50343ZM19.067 13.4985C18.777 13.4985 18.4934 13.4106 18.2523 13.2459C18.0111 13.0812 17.8231 12.847 17.7121 12.5731C17.6011 12.2991 17.5721 11.9977 17.6287 11.7069C17.6853 11.4161 17.8249 11.1489 18.03 10.9393C18.2351 10.7296 18.4964 10.5868 18.7809 10.529C19.0654 10.4711 19.3602 10.5008 19.6282 10.6143C19.8962 10.7278 20.1252 10.9199 20.2864 11.1665C20.4475 11.413 20.5335 11.7028 20.5335 11.9994C20.5335 12.397 20.379 12.7783 20.104 13.0594C19.829 13.3406 19.4559 13.4985 19.067 13.4985Z" fill="#F5F5F0"/>
</svg>
